<?xml version="1.0" standalone="no"?>
<!DOCTYPE svg PUBLIC "-//W3C//DTD SVG 20010904//EN"
 "http://www.w3.org/TR/2001/REC-SVG-20010904/DTD/svg10.dtd">
<svg version="1.0" xmlns="http://www.w3.org/2000/svg"
 width="130.000000pt" height="130.000000pt" viewBox="0 0 130.000000 130.000000"
 preserveAspectRatio="xMidYMid meet">

<g transform="translate(0.000000,130.000000) scale(0.100000,-0.100000)"
fill="#000000" stroke="none">
<path d="M135 718 c-11 -6 -23 -16 -27 -22 -10 -14 -10 -78 0 -92 19 -29 94
-46 107 -24 4 6 -8 10 -28 10 -40 0 -67 25 -67 62 0 33 29 58 69 58 19 0 30 4
26 10 -8 13 -55 12 -80 -2z"/>
<path d="M275 705 c-54 -53 -17 -135 61 -135 46 0 43 18 -3 22 -29 2 -41 9
-53 31 -13 24 -13 30 0 55 12 21 24 28 53 30 47 4 49 22 2 22 -25 0 -44 -8
-60 -25z"/>
<path d="M476 685 c-15 -37 -22 -45 -44 -46 -25 -2 -25 -2 -4 -6 20 -4 22 -9
17 -34 -8 -36 2 -38 15 -3 8 21 15 25 35 20 19 -5 23 -3 19 9 -4 8 -12 15 -20
15 -16 0 -16 5 -8 38 10 36 21 26 44 -43 12 -36 26 -65 31 -65 12 0 -44 153
-58 157 -5 2 -18 -17 -27 -42z"/>
<path d="M573 669 c10 -39 36 -99 45 -99 9 0 53 112 47 118 -4 5 -15 -18 -40
-83 -6 -17 -10 -12 -24 27 -18 52 -37 78 -28 37z"/>
<path d="M697 672 c-19 -21 -22 -54 -7 -83 12 -21 64 -27 76 -7 4 7 3 8 -5 4
-21 -13 -61 3 -61 24 0 17 7 20 40 20 44 0 52 16 24 44 -21 21 -47 20 -67 -2z
m47 2 c28 -11 18 -34 -14 -34 -32 0 -37 9 -18 28 14 14 12 14 32 6z"/>
<path d="M807 684 c-11 -11 -8 -114 3 -114 6 0 10 20 10 45 0 32 5 47 18 53
30 16 42 3 42 -49 0 -28 5 -49 11 -49 6 0 9 20 7 51 -3 60 -24 82 -57 62 -13
-8 -21 -9 -23 -2 -2 6 -7 7 -11 3z"/>
<path d="M934 641 c1 -62 21 -85 55 -64 15 10 21 10 24 0 3 -7 5 17 5 53 -1
63 -1 64 -7 16 -11 -89 -59 -88 -72 2 l-7 47 2 -54z"/>
<path d="M1066 668 c-21 -30 -20 -61 2 -81 20 -18 72 -23 72 -8 0 5 -9 7 -20
4 -23 -6 -50 12 -50 33 0 10 13 14 40 14 33 0 40 3 40 20 0 20 -27 40 -54 40
-8 0 -22 -10 -30 -22z m60 -5 c17 -17 16 -18 -15 -21 -40 -4 -48 2 -31 23 16
19 25 19 46 -2z"/>
</g>
</svg>
