<svg xmlns="http://www.w3.org/2000/svg" xmlns:xlink="http://www.w3.org/1999/xlink" width="188.522" height="142.53" viewBox="0 0 188.522 142.53">
  <defs>
    <linearGradient id="linear-gradient" x1="0.376" y1="-0.008" x2="0.604" y2="1.029" gradientUnits="objectBoundingBox">
      <stop offset="0" stop-color="#eb5b17"/>
      <stop offset="1" stop-color="#f97e30"/>
    </linearGradient>
    <linearGradient id="linear-gradient-2" x1="0.397" y1="0.171" x2="0.6" y2="1.133" xlink:href="#linear-gradient"/>
    <linearGradient id="linear-gradient-3" x1="0.606" y1="0.125" x2="1.03" y2="-1.242" xlink:href="#linear-gradient"/>
  </defs>
  <g id="homelogo" transform="translate(-1340.739 -496.5)">
    <g id="Group_1" data-name="Group 1" transform="translate(1450.439 497)">
      <path id="Path_3" data-name="Path 3" d="M96.52,26.555V12.138a10.888,10.888,0,0,1,10.9-10.888h0a10.888,10.888,0,0,1,10.891,10.888V26.555" transform="translate(-68.434 -1.25)" fill="none" stroke="#000" stroke-miterlimit="10" stroke-width="1"/>
      <path id="Path_4" data-name="Path 4" d="M87.58,63.878,43.334,62.423a3.391,3.391,0,0,0-3.6,2.691L39,99.876c.783-1.623,1.571-3.168,1.728-3.636.332-.995,10.4-13.943,10.4-13.943l16.29-1.233,8.1-.111L85.7,89.637l.451,5.213.079.873,1.239,14.312L81.212,113.5l3.171.131a3.3,3.3,0,0,0,3.63-3.18l2.845-43.661A3.235,3.235,0,0,0,87.58,63.878Z" transform="translate(-27.646 -44.626)" fill="#020405"/>
      <path id="Path_5" data-name="Path 5" d="M28.89,95.22a13.518,13.518,0,0,0,4.576,4.945,19.687,19.687,0,0,0,10.746,2.842,36.459,36.459,0,0,0,15.5-3.869A49,49,0,0,0,75.5,87l3.02-3.491L76.193,56.784a3.3,3.3,0,0,0-3.287-3.014H35.031a3.3,3.3,0,0,0-3.287,3.049Z" transform="translate(-20.477 -38.492)" fill="url(#linear-gradient)"/>
      <path id="Path_6" data-name="Path 6" d="M157.5,189.1l-1.318-15.2-.079.521-.058.4-.209.343a52.291,52.291,0,0,1-18.059,17.524h16.436A3.3,3.3,0,0,0,157.5,189.1Z" transform="translate(-97.691 -123.677)" fill="url(#linear-gradient-2)"/>
      <path id="Path_7" data-name="Path 7" d="M50.377,144.006c.346-.367.687-.733,1.021-1.105l.236-.291c.291-.34.6-.681.873-1.024.1-.128.207-.259.308-.387.256-.311.509-.625.753-.943.14-.18.271-.364.407-.544.2-.268.4-.535.6-.806s.346-.506.521-.759c.14-.2.291-.41.425-.617q.457-.7.873-1.393l.1-.625a51.052,51.052,0,0,1-16.433,12.622,38.294,38.294,0,0,1-16.369,4.073,21.581,21.581,0,0,1-11.831-3.162c-.4-.256-.771-.532-1.14-.817-.177-.14-.349-.291-.521-.436s-.329-.291-.489-.431c-.221-.2-.436-.416-.643-.631-.084-.087-.163-.175-.244-.265-.239-.259-.474-.524-.7-.8h0a16.148,16.148,0,0,1-3.2-7c-1.05-5.236.09-11.054,2.868-16.718l.134-.291c.218-.436.445-.873.684-1.3-6.475,7.915-9.832,17.163-8.253,25.017C2.1,154.094,9.5,158.911,19.12,158.911a35.05,35.05,0,0,0,10.827-1.833,44.723,44.723,0,0,0,5.55-2.225,50.867,50.867,0,0,0,12.218-8.273l.017-.015q.64-.582,1.26-1.19c.026-.023.052-.052.079-.079q.582-.582,1.146-1.164Z" transform="translate(0.03 -85.704)" fill="#020405"/>
      <path id="Path_8" data-name="Path 8" d="M142.59,81.59a3.2,3.2,0,1,1,3.2,3.2A3.2,3.2,0,0,1,142.59,81.59Z" transform="translate(-101.102 -55.95)" fill="#020405"/>
      <path id="Path_9" data-name="Path 9" d="M67.72,81.59a3.2,3.2,0,1,1,3.2,3.2A3.2,3.2,0,0,1,67.72,81.59Z" transform="translate(-48.012 -55.95)" fill="#020405"/>
      <path id="Path_10" data-name="Path 10" d="M78.69,26.555V12.138A10.888,10.888,0,0,1,89.578,1.25h0a10.888,10.888,0,0,1,10.891,10.888V26.555" transform="translate(-55.791 -1.25)" fill="none" stroke="#000" stroke-miterlimit="10" stroke-width="1"/>
      <path id="Path_11" data-name="Path 11" d="M91.453,132.057H87.447a.986.986,0,0,1-.951-.521,1,1,0,0,1,.055-1.056c.666-1.126,1.326-2.254,1.993-3.383a1.2,1.2,0,0,1,2.036,1.271c-.25.387-.518.759-.771,1.143-.183.276-.116.422.212.425h4.363c.207,0,.244-.087.128-.291q-1.079-1.818-2.153-3.645-2.54-4.314-5.085-8.628c-.195-.329-.291-.332-.477,0q-2.958,4.9-5.911,9.809l-2.6,4.314a1.1,1.1,0,0,1-1.562.4,1.132,1.132,0,0,1-.335-1.58c1.076-1.772,2.147-3.552,3.217-5.326l6.519-10.81a.934.934,0,0,1,1.667.017c.655,1.073,1.3,2.156,1.952,3.229,2.423,3.988,4.823,7.991,7.144,12.04a1.684,1.684,0,0,1-.943,2.522,1.707,1.707,0,0,1-.454.061H91.453Z" transform="translate(-54.026 -80.972)" fill="#fff"/>
      <path id="Path_12" data-name="Path 12" d="M94.066,154.021a1.129,1.129,0,0,1-.9-1.777l3.849-6.083a11.328,11.328,0,0,1,.7-1.073,1.12,1.12,0,0,1,1.146-.41,1.085,1.085,0,0,1,.9.815,1.021,1.021,0,0,1-.122.873q-2.257,3.569-4.521,7.133A1.164,1.164,0,0,1,94.066,154.021Z" transform="translate(-65.913 -102.934)" fill="#fff"/>
    </g>
    <g id="Group_2" data-name="Group 2" transform="translate(1340.739 580.435)">
      <path id="Path_1" data-name="Path 1" d="M272.813,75.668H256.184l-3.171,7.674H244.52L260.481,47.53h8.187l16.013,35.812h-8.7ZM270.2,69.375l-5.678-13.71-5.678,13.71ZM288.415,47.53H296.7V76.583h17.957v6.759H288.415Zm54.663,1.586a12.84,12.84,0,0,1,5.4,18.291,12.073,12.073,0,0,1-5.4,4.5,20.518,20.518,0,0,1-8.262,1.561H327.6v9.872h-8.286V47.53h15.5A19.9,19.9,0,0,1,343.077,49.116ZM340.033,65.1a5.591,5.591,0,0,0,1.944-4.577,5.694,5.694,0,0,0-1.944-4.636,8.648,8.648,0,0,0-5.678-1.613H327.6V66.711h6.753A8.672,8.672,0,0,0,340.033,65.1ZM389.1,47.53V83.342h-8.286V68.661h-16.27V83.342h-8.3V47.53h8.286V61.652H380.8V47.53Zm32.079,28.126H404.546l-3.177,7.687h-8.487L408.845,47.53h8.184l16.013,35.812h-8.7Zm-2.609-6.293-5.681-13.7-5.678,13.71Z" transform="translate(-244.52 -47.53)" fill="#020405"/>
      <path id="Path_2" data-name="Path 2" d="M266.876,196.273v2.1H254.64v-16.86h11.9v2.1h-9.492v5.177H265.5v2.049h-8.453v5.443Zm5.634-5.517H279v2h-6.491Zm16.9,6.685a8.237,8.237,0,0,1-3.193-3.091,9.028,9.028,0,0,1,0-8.839,8.211,8.211,0,0,1,3.2-3.091,9.374,9.374,0,0,1,4.587-1.1,9.54,9.54,0,0,1,3.613.661,7.38,7.38,0,0,1,2.782,1.963l-1.567,1.518a6.28,6.28,0,0,0-4.744-2,6.859,6.859,0,0,0-3.4.844,6.086,6.086,0,0,0-2.374,2.324,6.834,6.834,0,0,0,0,6.623,6.108,6.108,0,0,0,2.374,2.324,6.858,6.858,0,0,0,3.4.844,6.3,6.3,0,0,0,4.744-2.024l1.567,1.518a7.52,7.52,0,0,1-2.806,1.975,9.522,9.522,0,0,1-3.625.674A9.322,9.322,0,0,1,289.408,197.441Zm18.99.229a6.119,6.119,0,0,1-2.371-2.324,7.019,7.019,0,0,1,0-6.719,6.033,6.033,0,0,1,2.371-2.315,7.016,7.016,0,0,1,3.421-.828,6.93,6.93,0,0,1,3.4.828,6.051,6.051,0,0,1,2.367,2.324,7.019,7.019,0,0,1,0,6.719,6.137,6.137,0,0,1-2.361,2.324,6.836,6.836,0,0,1-3.4.841,6.92,6.92,0,0,1-3.428-.85Zm5.625-1.746a4.018,4.018,0,0,0,1.545-1.592,5.254,5.254,0,0,0,0-4.695,3.944,3.944,0,0,0-1.545-1.579,4.667,4.667,0,0,0-4.407,0,3.994,3.994,0,0,0-1.545,1.579,5.155,5.155,0,0,0,0,4.695,4.064,4.064,0,0,0,1.545,1.592A4.574,4.574,0,0,0,314.022,195.923ZM344.8,186.88a5.589,5.589,0,0,1,1.409,4.142v7.347H343.9v-7.081a3.985,3.985,0,0,0-.856-2.782,3.157,3.157,0,0,0-2.445-.927,3.662,3.662,0,0,0-2.782,1.094,4.414,4.414,0,0,0-1.035,3.143v6.577h-2.312v-7.106a3.97,3.97,0,0,0-.856-2.782,3.162,3.162,0,0,0-2.445-.927,3.669,3.669,0,0,0-2.782,1.094,4.414,4.414,0,0,0-1.035,3.143v6.577h-2.312V185.628h2.216v1.9a4.5,4.5,0,0,1,1.83-1.505,6.16,6.16,0,0,1,2.578-.516,5.681,5.681,0,0,1,2.649.6,4.185,4.185,0,0,1,1.783,1.759,4.893,4.893,0,0,1,2.012-1.734,6.549,6.549,0,0,1,2.9-.618,5.051,5.051,0,0,1,3.792,1.366Zm28.83,0a5.613,5.613,0,0,1,1.406,4.142v7.347h-2.312v-7.081a3.985,3.985,0,0,0-.853-2.782,3.157,3.157,0,0,0-2.445-.927,3.66,3.66,0,0,0-2.782,1.094,4.4,4.4,0,0,0-1.035,3.143v6.577H363.3v-7.106a3.985,3.985,0,0,0-.856-2.782,3.157,3.157,0,0,0-2.445-.927,3.662,3.662,0,0,0-2.782,1.094,4.414,4.414,0,0,0-1.035,3.143v6.577h-2.312V185.628h2.216v1.9a4.475,4.475,0,0,1,1.83-1.505,6.16,6.16,0,0,1,2.578-.516,5.681,5.681,0,0,1,2.649.6,4.219,4.219,0,0,1,1.783,1.759,4.883,4.883,0,0,1,2.009-1.734,6.558,6.558,0,0,1,2.9-.618,5.055,5.055,0,0,1,3.8,1.366Zm20.6,5.872H383.879a4.018,4.018,0,0,0,1.48,2.711,4.834,4.834,0,0,0,3.143,1.023,4.735,4.735,0,0,0,3.687-1.545l1.276,1.493a5.594,5.594,0,0,1-2.164,1.545,8.147,8.147,0,0,1-6.466-.309,5.929,5.929,0,0,1-2.42-2.324,6.648,6.648,0,0,1-.856-3.372,6.8,6.8,0,0,1,.838-3.338,5.969,5.969,0,0,1,2.287-2.324,6.524,6.524,0,0,1,3.276-.828,6.391,6.391,0,0,1,3.264.828,5.847,5.847,0,0,1,2.238,2.324,7.09,7.09,0,0,1,.807,3.421,6.853,6.853,0,0,1-.034.7Zm-9.043-4.327a4.08,4.08,0,0,0-1.314,2.649h8.19a4.12,4.12,0,0,0-1.314-2.636,4.327,4.327,0,0,0-5.563,0Zm19.663-2.383a6.465,6.465,0,0,1,2.868-.578v2.244a4.8,4.8,0,0,0-.532-.022,3.885,3.885,0,0,0-2.949,1.119,4.445,4.445,0,0,0-1.072,3.19v6.361H400.86V185.591h2.216v2.142a3.937,3.937,0,0,1,1.78-1.672ZM415.9,197.651a6.182,6.182,0,0,1-2.4-2.324,6.933,6.933,0,0,1,0-6.719,6.1,6.1,0,0,1,2.4-2.315,7.189,7.189,0,0,1,3.483-.828,6.666,6.666,0,0,1,3.091.7,4.982,4.982,0,0,1,2.108,2.021l-1.759,1.131a3.95,3.95,0,0,0-1.493-1.372,4.3,4.3,0,0,0-1.975-.457,4.583,4.583,0,0,0-2.253.553,3.943,3.943,0,0,0-1.564,1.579,5.18,5.18,0,0,0,0,4.72,3.944,3.944,0,0,0,1.564,1.579,4.584,4.584,0,0,0,2.253.553,4.262,4.262,0,0,0,1.975-.457,3.949,3.949,0,0,0,1.493-1.372l1.759,1.106a5.072,5.072,0,0,1-2.108,2.037,6.6,6.6,0,0,1-3.091.708,7.109,7.109,0,0,1-3.483-.822Zm26.339-4.914H431.881a4.018,4.018,0,0,0,1.48,2.711,4.834,4.834,0,0,0,3.143,1.023,4.729,4.729,0,0,0,3.684-1.545l1.277,1.493a5.581,5.581,0,0,1-2.164,1.545,8.147,8.147,0,0,1-6.466-.309,5.955,5.955,0,0,1-2.423-2.324,6.676,6.676,0,0,1-.853-3.372,6.76,6.76,0,0,1,.841-3.323,5.968,5.968,0,0,1,2.287-2.324,6.525,6.525,0,0,1,3.289-.828,6.407,6.407,0,0,1,3.264.828,5.873,5.873,0,0,1,2.238,2.324,7.091,7.091,0,0,1,.807,3.421,6.851,6.851,0,0,1-.046.7Zm-9.044-4.327a4.065,4.065,0,0,0-1.314,2.7h8.187a4.1,4.1,0,0,0-1.31-2.636,4.327,4.327,0,0,0-5.563,0Z" transform="translate(-253.764 -139.966)" fill="url(#linear-gradient-3)"/>
    </g>
  </g>
</svg>
