<svg xmlns="http://www.w3.org/2000/svg" xmlns:xlink="http://www.w3.org/1999/xlink" width="94" height="94" viewBox="0 0 94 94">
  <defs>
    <linearGradient id="linear-gradient" x1="0.5" x2="0.5" y2="1" gradientUnits="objectBoundingBox">
      <stop offset="0" stop-color="#eb5b17"/>
      <stop offset="1" stop-color="#f97e30"/>
    </linearGradient>
  </defs>
  <g id="loginlogo" transform="translate(-1596 -515.428)">
    <rect id="Rectangle_2701" data-name="Rectangle 2701" width="66.468" height="66.468" rx="7" transform="translate(1643 515.428) rotate(45)" fill="url(#linear-gradient)"/>
    <g id="Group_4" data-name="Group 4" transform="translate(1.973 3.444)">
      <path id="Path_3" data-name="Path 3" d="M96.52,17.95V8.436a7.186,7.186,0,0,1,7.2-7.186h0A7.186,7.186,0,0,1,110.9,8.436V17.95" transform="translate(1541.183 532.578)" fill="none" stroke="#000" stroke-miterlimit="10" stroke-width="1"/>
      <path id="Path_4" data-name="Path 4" d="M71.061,63.382l-29.2-.96A2.238,2.238,0,0,0,39.482,64.2L39,87.14c.516-1.071,1.037-2.091,1.14-2.4.219-.657,6.865-9.2,6.865-9.2l10.751-.814,5.343-.073,6.719,5.731.3,3.44.052.576.818,9.445-4.128,2.285,2.093.086a2.179,2.179,0,0,0,2.4-2.1L73.224,65.3A2.135,2.135,0,0,0,71.061,63.382Z" transform="translate(1587.661 483.151)" fill="#020405"/>
      <path id="Path_5" data-name="Path 5" d="M28.89,81.125a8.921,8.921,0,0,0,3.02,3.264A12.992,12.992,0,0,0,39,86.264a24.061,24.061,0,0,0,10.233-2.553A32.339,32.339,0,0,0,59.651,75.7l1.993-2.3L60.108,55.759a2.179,2.179,0,0,0-2.169-1.989h-25a2.177,2.177,0,0,0-2.169,2.012Z" transform="translate(1595.83 490.14)" fill="#fff"/>
      <path id="Path_6" data-name="Path 6" d="M150.8,183.931l-.87-10.031-.052.344-.038.261-.138.227A34.51,34.51,0,0,1,137.78,186.3h10.847a2.177,2.177,0,0,0,2.169-2.365Z" transform="translate(1507.845 393.073)" fill="#fff"/>
      <path id="Path_7" data-name="Path 7" d="M33.236,135.962c.228-.242.453-.484.674-.73l.155-.192c.192-.225.394-.449.576-.676.069-.084.136-.171.2-.255.169-.205.336-.413.5-.622.092-.119.179-.24.269-.359.132-.177.267-.353.4-.532s.228-.334.344-.5c.092-.134.192-.271.28-.407q.3-.459.576-.92l.063-.413a33.692,33.692,0,0,1-10.845,8.33,25.273,25.273,0,0,1-10.8,2.688,14.242,14.242,0,0,1-7.808-2.087c-.261-.169-.509-.351-.753-.539-.117-.092-.23-.192-.344-.288s-.217-.192-.323-.284c-.146-.134-.288-.275-.424-.417-.056-.058-.108-.115-.161-.175-.157-.171-.313-.346-.459-.528h0a10.657,10.657,0,0,1-2.112-4.621A17.524,17.524,0,0,1,5.132,121.4l.088-.192c.144-.288.294-.576.451-.86C1.4,125.574-.817,131.677.225,136.86c1.152,5.759,6.036,8.939,12.383,8.939a23.132,23.132,0,0,0,7.145-1.21,29.513,29.513,0,0,0,3.663-1.469,33.569,33.569,0,0,0,8.063-5.46l.012-.01q.422-.384.831-.785c.017-.015.035-.035.052-.052q.384-.384.756-.768Z" transform="translate(1619.198 436.342)" fill="#020405"/>
      <path id="Path_8" data-name="Path 8" d="M142.59,80.5a2.112,2.112,0,1,1,2.112,2.112A2.112,2.112,0,0,1,142.59,80.5Z" transform="translate(1503.958 470.247)" fill="#020405"/>
      <path id="Path_9" data-name="Path 9" d="M67.72,80.5a2.112,2.112,0,1,1,2.112,2.112A2.112,2.112,0,0,1,67.72,80.5Z" transform="translate(1564.454 470.247)" fill="#020405"/>
      <path id="Path_10" data-name="Path 10" d="M78.69,17.95V8.436A7.186,7.186,0,0,1,85.876,1.25h0a7.186,7.186,0,0,1,7.188,7.186V17.95" transform="translate(1555.59 532.578)" fill="none" stroke="#000" stroke-miterlimit="10" stroke-width="1"/>
      <g id="Group_3" data-name="Group 3" transform="translate(1632.785 554.513)">
        <path id="Path_11" data-name="Path 11" d="M87.756,127.6H84.721a.747.747,0,0,1-.721-.395.76.76,0,0,1,.042-.8c.5-.853,1-1.708,1.51-2.563a.909.909,0,0,1,1.543.963c-.19.293-.392.575-.584.866-.139.209-.088.32.161.322h3.306c.156,0,.185-.066.1-.22q-.818-1.377-1.631-2.761-1.924-3.268-3.852-6.537c-.148-.249-.22-.251-.361,0q-2.241,3.716-4.478,7.431l-1.97,3.268a.835.835,0,0,1-1.183.3.857.857,0,0,1-.253-1.2c.815-1.342,1.626-2.691,2.437-4.035l4.939-8.19a.707.707,0,0,1,1.263.013c.5.813.985,1.633,1.479,2.446,1.836,3.021,3.654,6.054,5.413,9.122a1.276,1.276,0,0,1-.714,1.911,1.293,1.293,0,0,1-.344.046H87.756Z" transform="translate(-76.202 -113.677)" fill="url(#linear-gradient)"/>
        <path id="Path_12" data-name="Path 12" d="M93.8,151.749a.855.855,0,0,1-.679-1.347l2.916-4.608a8.591,8.591,0,0,1,.531-.813.849.849,0,0,1,.868-.311.822.822,0,0,1,.681.617.774.774,0,0,1-.093.661q-1.71,2.7-3.425,5.4A.882.882,0,0,1,93.8,151.749Z" transform="translate(-89.27 -137.822)" fill="url(#linear-gradient)"/>
      </g>
    </g>
  </g>
</svg>
