<svg xmlns="http://www.w3.org/2000/svg" xmlns:xlink="http://www.w3.org/1999/xlink" width="347" height="161" viewBox="0 0 347 161">
  <defs>
    <linearGradient id="linear-gradient" x1="0.376" y1="-0.008" x2="0.604" y2="1.029" gradientUnits="objectBoundingBox">
      <stop offset="0" stop-color="#eb5b17"/>
      <stop offset="1" stop-color="#f97e30"/>
    </linearGradient>
    <linearGradient id="linear-gradient-2" x1="0.397" y1="0.171" x2="0.6" y2="1.133" xlink:href="#linear-gradient"/>
  </defs>
  <g id="Slidereph" transform="translate(-1958 -231)" opacity="0.55">
    <rect id="sliderph" width="347" height="161" transform="translate(1958 231)" fill="none"/>
    <g id="Group_1" data-name="Group 1" transform="translate(2096 270)">
      <path id="Path_3" data-name="Path 3" d="M96.52,29.738V13.508A12.258,12.258,0,0,1,108.794,1.25h0a12.258,12.258,0,0,1,12.261,12.258v16.23" transform="translate(-64.901 -1.25)" fill="none" stroke="#000" stroke-miterlimit="10" stroke-width="1"/>
      <path id="Path_4" data-name="Path 4" d="M93.69,64.061,43.88,62.424a3.817,3.817,0,0,0-4.058,3.029L39,104.587c.881-1.827,1.768-3.566,1.945-4.094.373-1.12,11.711-15.7,11.711-15.7L71,83.409l9.114-.124L91.571,93.06l.508,5.869.088.982,1.4,16.112-7.041,3.9,3.57.147a3.716,3.716,0,0,0,4.087-3.579l3.2-49.152A3.642,3.642,0,0,0,93.69,64.061Z" transform="translate(-26.218 -42.388)" fill="#020405"/>
      <path id="Path_5" data-name="Path 5" d="M28.89,100.433A15.218,15.218,0,0,0,34.041,106a22.163,22.163,0,0,0,12.1,3.2,41.045,41.045,0,0,0,17.455-4.356A55.165,55.165,0,0,0,81.363,91.179l3.4-3.93-2.62-30.086a3.717,3.717,0,0,0-3.7-3.393H35.8A3.714,3.714,0,0,0,32.1,57.2Z" transform="translate(-19.419 -36.571)" fill="url(#linear-gradient)"/>
      <path id="Path_6" data-name="Path 6" d="M159.983,191.011,158.5,173.9l-.088.586-.065.445-.236.386a58.868,58.868,0,0,1-20.33,19.728h18.5a3.714,3.714,0,0,0,3.7-4.035Z" transform="translate(-92.649 -117.36)" fill="url(#linear-gradient-2)"/>
      <path id="Path_7" data-name="Path 7" d="M56.717,146.981c.39-.413.773-.825,1.149-1.244l.265-.328c.327-.383.671-.766.982-1.153.118-.144.233-.291.347-.436.288-.35.573-.7.848-1.061.157-.2.3-.409.458-.612.226-.3.455-.6.675-.907s.39-.57.586-.855c.157-.229.327-.462.478-.694q.514-.783.982-1.569l.108-.7a57.474,57.474,0,0,1-18.5,14.21,43.111,43.111,0,0,1-18.428,4.585,24.3,24.3,0,0,1-13.319-3.56c-.445-.288-.868-.6-1.284-.92-.2-.157-.393-.327-.586-.491s-.37-.327-.55-.485c-.249-.229-.491-.468-.724-.711-.095-.1-.183-.2-.275-.3-.269-.291-.534-.589-.783-.9h0a18.179,18.179,0,0,1-3.6-7.883c-1.182-5.895.1-12.444,3.229-18.821l.151-.327c.246-.491.5-.982.77-1.467-7.29,8.911-11.069,19.322-9.291,28.164,1.965,9.825,10.3,15.248,21.123,15.248A39.458,39.458,0,0,0,33.717,161.7a50.349,50.349,0,0,0,6.248-2.505,57.265,57.265,0,0,0,13.754-9.314l.02-.016q.72-.655,1.418-1.339c.029-.026.059-.059.088-.088q.655-.655,1.29-1.31Z" transform="translate(0.03 -81.347)" fill="#020405"/>
      <path id="Path_8" data-name="Path 8" d="M142.59,81.992a3.6,3.6,0,1,1,3.6,3.6A3.6,3.6,0,0,1,142.59,81.992Z" transform="translate(-95.884 -53.128)" fill="#020405"/>
      <path id="Path_9" data-name="Path 9" d="M67.72,81.992a3.6,3.6,0,1,1,3.6,3.6A3.6,3.6,0,0,1,67.72,81.992Z" transform="translate(-45.533 -53.128)" fill="#020405"/>
      <path id="Path_10" data-name="Path 10" d="M78.69,29.738V13.508A12.258,12.258,0,0,1,90.948,1.25h0a12.258,12.258,0,0,1,12.261,12.258v16.23" transform="translate(-52.911 -1.25)" fill="none" stroke="#000" stroke-miterlimit="10" stroke-width="1"/>
      <path id="Path_11" data-name="Path 11" d="M93.371,134.369H88.862a1.11,1.11,0,0,1-1.071-.586,1.13,1.13,0,0,1,.062-1.189c.75-1.267,1.493-2.538,2.243-3.809a1.351,1.351,0,1,1,2.292,1.431c-.282.436-.583.855-.868,1.287-.206.311-.131.475.239.478h4.912c.233,0,.275-.1.144-.327q-1.215-2.047-2.423-4.1-2.859-4.857-5.724-9.713c-.219-.37-.327-.373-.537,0q-3.331,5.521-6.654,11.043l-2.928,4.857a1.241,1.241,0,0,1-1.759.452,1.274,1.274,0,0,1-.377-1.778c1.212-1.994,2.417-4,3.622-6l7.339-12.169a1.051,1.051,0,0,1,1.876.02c.737,1.208,1.464,2.427,2.2,3.635,2.728,4.49,5.43,9,8.043,13.555a1.9,1.9,0,0,1-1.061,2.839,1.921,1.921,0,0,1-.511.069H93.371Z" transform="translate(-51.237 -76.859)" fill="#fff"/>
      <path id="Path_12" data-name="Path 12" d="M94.2,155.2a1.271,1.271,0,0,1-1.009-2l4.333-6.848a12.751,12.751,0,0,1,.789-1.208,1.261,1.261,0,0,1,1.29-.462,1.222,1.222,0,0,1,1.012.917,1.149,1.149,0,0,1-.138.982q-2.541,4.018-5.089,8.03A1.31,1.31,0,0,1,94.2,155.2Z" transform="translate(-62.51 -97.687)" fill="#fff"/>
    </g>
  </g>
</svg>
