<svg xmlns="http://www.w3.org/2000/svg" xmlns:xlink="http://www.w3.org/1999/xlink" width="912.582" height="691.88" viewBox="0 0 912.582 691.88">
  <defs>
    <filter id="Path_3" x="649.666" y="0" width="125.168" height="139.349" filterUnits="userSpaceOnUse">
      <feOffset dy="3" input="SourceAlpha"/>
      <feGaussianBlur stdDeviation="3" result="blur"/>
      <feFlood flood-opacity="0.161"/>
      <feComposite operator="in" in2="blur"/>
      <feComposite in="SourceGraphic"/>
    </filter>
    <filter id="Path_4" x="573.304" y="86.025" width="261.901" height="258.848" filterUnits="userSpaceOnUse">
      <feOffset dy="3" input="SourceAlpha"/>
      <feGaussianBlur stdDeviation="3" result="blur-2"/>
      <feFlood flood-opacity="0.161"/>
      <feComposite operator="in" in2="blur-2"/>
      <feComposite in="SourceGraphic"/>
    </filter>
    <filter id="Path_5" x="559.471" y="74.189" width="251.42" height="249.573" filterUnits="userSpaceOnUse">
      <feOffset dy="3" input="SourceAlpha"/>
      <feGaussianBlur stdDeviation="3" result="blur-3"/>
      <feFlood flood-opacity="0.161"/>
      <feComposite operator="in" in2="blur-3"/>
      <feComposite in="SourceGraphic"/>
    </filter>
    <filter id="Path_6" x="708.45" y="238.545" width="110.819" height="106.342" filterUnits="userSpaceOnUse">
      <feOffset dy="3" input="SourceAlpha"/>
      <feGaussianBlur stdDeviation="3" result="blur-4"/>
      <feFlood flood-opacity="0.161"/>
      <feComposite operator="in" in2="blur-4"/>
      <feComposite in="SourceGraphic"/>
    </filter>
    <filter id="Path_7" x="519.904" y="165.28" width="283.818" height="199.362" filterUnits="userSpaceOnUse">
      <feOffset dy="3" input="SourceAlpha"/>
      <feGaussianBlur stdDeviation="3" result="blur-5"/>
      <feFlood flood-opacity="0.161"/>
      <feComposite operator="in" in2="blur-5"/>
      <feComposite in="SourceGraphic"/>
    </filter>
    <filter id="Path_8" x="715.03" y="107.873" width="48.1" height="48.099" filterUnits="userSpaceOnUse">
      <feOffset dy="3" input="SourceAlpha"/>
      <feGaussianBlur stdDeviation="3" result="blur-6"/>
      <feFlood flood-opacity="0.161"/>
      <feComposite operator="in" in2="blur-6"/>
      <feComposite in="SourceGraphic"/>
    </filter>
    <filter id="Path_9" x="612.597" y="107.873" width="48.099" height="48.099" filterUnits="userSpaceOnUse">
      <feOffset dy="3" input="SourceAlpha"/>
      <feGaussianBlur stdDeviation="3" result="blur-7"/>
      <feFlood flood-opacity="0.161"/>
      <feComposite operator="in" in2="blur-7"/>
      <feComposite in="SourceGraphic"/>
    </filter>
    <filter id="Path_10" x="625.271" y="0" width="125.1" height="139.349" filterUnits="userSpaceOnUse">
      <feOffset dy="3" input="SourceAlpha"/>
      <feGaussianBlur stdDeviation="3" result="blur-8"/>
      <feFlood flood-opacity="0.161"/>
      <feComposite operator="in" in2="blur-8"/>
      <feComposite in="SourceGraphic"/>
    </filter>
    <filter id="Path_11" x="624.201" y="156.151" width="116.547" height="104.508" filterUnits="userSpaceOnUse">
      <feOffset dy="3" input="SourceAlpha"/>
      <feGaussianBlur stdDeviation="3" result="blur-9"/>
      <feFlood flood-opacity="0.161"/>
      <feComposite operator="in" in2="blur-9"/>
      <feComposite in="SourceGraphic"/>
    </filter>
    <filter id="Path_12" x="647.135" y="198.523" width="50.206" height="62.099" filterUnits="userSpaceOnUse">
      <feOffset dy="3" input="SourceAlpha"/>
      <feGaussianBlur stdDeviation="3" result="blur-10"/>
      <feFlood flood-opacity="0.161"/>
      <feComposite operator="in" in2="blur-10"/>
      <feComposite in="SourceGraphic"/>
    </filter>
    <filter id="Path_1" x="0" y="390.375" width="912.582" height="194.353" filterUnits="userSpaceOnUse">
      <feOffset dy="2.59" input="SourceAlpha"/>
      <feGaussianBlur stdDeviation="4.32" result="blur-11"/>
      <feFlood flood-opacity="0.161"/>
      <feComposite operator="in" in2="blur-11"/>
      <feComposite in="SourceGraphic"/>
    </filter>
    <filter id="Path_2" x="4.123" y="584.85" width="908.459" height="107.03" filterUnits="userSpaceOnUse">
      <feOffset dy="2.59" input="SourceAlpha"/>
      <feGaussianBlur stdDeviation="4.32" result="blur-12"/>
      <feFlood flood-opacity="0.161"/>
      <feComposite operator="in" in2="blur-12"/>
      <feComposite in="SourceGraphic"/>
    </filter>
  </defs>
  <g id="splashlogo" transform="translate(-4335.729 586.972)">
    <g transform="matrix(1, 0, 0, 1, 4335.73, -586.97)" filter="url(#Path_3)">
      <path id="Path_3-2" data-name="Path 3" d="M201.689,120.6h-4.667V52.793A48.877,48.877,0,0,0,148.146,3.917h-.081A48.877,48.877,0,0,0,99.187,52.793V120.6H94.52V52.793A53.543,53.543,0,0,1,148.062-.75h.088a53.5,53.5,0,0,1,53.539,53.543Z" transform="translate(564.15 6.75)" fill="#fff"/>
    </g>
    <g transform="matrix(1, 0, 0, 1, 4335.73, -586.97)" filter="url(#Path_4)">
      <path id="Path_4-2" data-name="Path 4" d="M267.482,69.274l-208.1-6.841c-8.5-.315-15.9,5.2-16.951,12.655L39,238.583c3.68-7.634,7.388-14.9,8.127-17.1,1.56-4.679,48.925-65.576,48.925-65.576l76.617-5.8,38.076-.52,47.885,40.839,2.121,24.517.369,4.1,5.828,67.313L237.533,302.64l14.913.616c9.577.356,17.417-6.567,17.074-14.954L282.9,82.956C282.6,75.527,275.9,69.589,267.482,69.274Z" transform="translate(543.3 29.6)" fill="#fff"/>
    </g>
    <g transform="matrix(1, 0, 0, 1, 4335.73, -586.97)" filter="url(#Path_5)">
      <path id="Path_5-2" data-name="Path 5" d="M28.89,248.718a63.578,63.578,0,0,0,21.521,23.259c13.476,8.742,30.948,13.367,50.54,13.367,22.9,0,48.132-6.294,72.923-18.2a230.464,230.464,0,0,0,74.236-57.093l14.2-16.418L251.365,67.944a15.529,15.529,0,0,0-15.46-14.174H57.772a15.515,15.515,0,0,0-15.46,14.338Z" transform="translate(539.58 26.42)" fill="#fff"/>
    </g>
    <g transform="matrix(1, 0, 0, 1, 4335.73, -586.97)" filter="url(#Path_6)">
      <path id="Path_6-2" data-name="Path 6" d="M230.541,245.386l-6.2-71.486-.37,2.449-.274,1.861-.985,1.614c-19.907,32.836-50.252,62.087-84.935,82.418h77.3a15.515,15.515,0,0,0,15.46-16.856Z" transform="translate(579.67 70.65)" fill="#fff"/>
    </g>
    <g transform="matrix(1, 0, 0, 1, 4335.73, -586.97)" filter="url(#Path_7)">
      <path id="Path_7-2" data-name="Path 7" d="M237.044,231.608c1.628-1.724,3.229-3.448,4.8-5.2l1.108-1.368c1.368-1.6,2.8-3.2,4.1-4.816.493-.6.971-1.218,1.45-1.82,1.2-1.464,2.394-2.942,3.544-4.433.657-.848,1.272-1.71,1.915-2.558.944-1.259,1.9-2.517,2.818-3.79s1.628-2.381,2.449-3.571c.657-.958,1.368-1.929,2-2.9q2.148-3.27,4.1-6.553l.452-2.942A240.111,240.111,0,0,1,188.5,251.022c-26.98,12.943-53.358,19.154-76.986,19.154-21.48,0-40.593-5.1-55.643-14.872-1.861-1.2-3.626-2.5-5.363-3.845-.835-.657-1.642-1.368-2.449-2.052s-1.546-1.368-2.3-2.025c-1.04-.958-2.052-1.957-3.024-2.969-.4-.41-.766-.821-1.149-1.245-1.122-1.218-2.23-2.463-3.27-3.762h0a75.947,75.947,0,0,1-15.05-32.932c-4.939-24.627.424-51.99,13.49-78.628l.629-1.368c1.026-2.052,2.093-4.1,3.215-6.129C10.149,157.577-5.639,201.071,1.79,238.011c8.209,41.045,43.015,63.7,88.246,63.7a164.847,164.847,0,0,0,50.923-8.619,210.327,210.327,0,0,0,26.1-10.466,239.234,239.234,0,0,0,57.463-38.91l.082-.068q3.01-2.736,5.924-5.6c.123-.11.246-.246.369-.369q2.736-2.736,5.391-5.473Z" transform="translate(528.93 50.93)" fill="#fff"/>
    </g>
    <g transform="matrix(1, 0, 0, 1, 4335.73, -586.97)" filter="url(#Path_8)">
      <path id="Path_8-2" data-name="Path 8" d="M142.59,93.44a15.05,15.05,0,1,1,15.05,15.05A15.05,15.05,0,0,1,142.59,93.44Z" transform="translate(581.44 35.48)" fill="#fff"/>
    </g>
    <g transform="matrix(1, 0, 0, 1, 4335.73, -586.97)" filter="url(#Path_9)">
      <path id="Path_9-2" data-name="Path 9" d="M67.72,93.44a15.05,15.05,0,1,1,15.05,15.05A15.05,15.05,0,0,1,67.72,93.44Z" transform="translate(553.88 35.48)" fill="#fff"/>
    </g>
    <g transform="matrix(1, 0, 0, 1, 4335.73, -586.97)" filter="url(#Path_10)">
      <path id="Path_10-2" data-name="Path 10" d="M183.79,120.6h-4.667V52.793A48.877,48.877,0,0,0,130.247,3.917h-.013A48.877,48.877,0,0,0,81.357,52.793V120.6H76.69V52.793a53.55,53.55,0,1,1,107.1,0Z" transform="translate(557.58 6.75)" fill="#fff"/>
    </g>
    <g id="Group_6" data-name="Group 6" transform="translate(4968.93 -424.821)">
      <g transform="matrix(1, 0, 0, 1, -633.2, -162.15)" filter="url(#Path_11)">
        <path id="Path_11-2" data-name="Path 11" d="M147.932,200.121H129.092a4.638,4.638,0,0,1-4.474-2.449,4.72,4.72,0,0,1,.26-4.966c3.133-5.295,6.239-10.6,9.372-15.912a5.645,5.645,0,1,1,9.577,5.979c-1.177,1.82-2.435,3.571-3.626,5.377-.862,1.3-.547,1.984,1,2h20.522c.971,0,1.149-.411.6-1.368q-5.076-8.551-10.124-17.143-11.944-20.29-23.915-40.579c-.917-1.546-1.368-1.56-2.244,0q-13.914,23.067-27.8,46.134L86.009,197.48a5.185,5.185,0,0,1-7.347,1.888,5.322,5.322,0,0,1-1.573-7.429c5.062-8.332,10.1-16.705,15.132-25.051l30.66-50.841a4.392,4.392,0,0,1,7.84.082c3.078,5.048,6.116,10.138,9.18,15.186,11.4,18.757,22.684,37.583,33.6,56.628a7.922,7.922,0,0,1-4.433,11.862,8.027,8.027,0,0,1-2.134.287h-19Z" transform="translate(557 48.47)" fill="#fff"/>
      </g>
      <g transform="matrix(1, 0, 0, 1, -633.2, -162.15)" filter="url(#Path_12)">
        <path id="Path_12-2" data-name="Path 12" d="M98.144,188.733a5.308,5.308,0,0,1-4.214-8.359q9.044-14.3,18.1-28.608a53.27,53.27,0,0,1,3.3-5.048,5.268,5.268,0,0,1,5.39-1.929,5.1,5.1,0,0,1,4.228,3.831,4.8,4.8,0,0,1-.575,4.1Q113.754,169.51,103.11,186.27A5.473,5.473,0,0,1,98.144,188.733Z" transform="translate(563.17 59.88)" fill="#fff"/>
      </g>
    </g>
    <g transform="matrix(1, 0, 0, 1, 4335.73, -586.97)" filter="url(#Path_1)">
      <path id="Path_1-2" data-name="Path 1" d="M377.586,179.869H299.38l-14.914,36.094H244.52L319.586,47.53h38.507l75.313,168.433H392.5Zm-12.283-29.6L338.6,85.79l-26.7,64.483ZM450.966,47.53h38.972V184.172h84.457v31.791H450.966Zm257.091,7.457a57.914,57.914,0,0,1,25.4,21.179q8.911,13.708,8.911,32.489a58.483,58.483,0,0,1-8.9,32.358,56.78,56.78,0,0,1-25.395,21.18q-16.485,7.268-38.856,7.341H635.273v46.429H596.3V47.53h72.9Q691.572,47.53,708.057,54.987Zm-14.318,75.2q9.158-7.559,9.143-21.528,0-14.187-9.143-21.8t-26.7-7.588H635.273v58.48h31.762Q684.595,137.772,693.738,130.184ZM924.489,47.53V215.963H885.517V146.915H809v69.048H769.982V47.53h38.972v66.417h76.519V47.53Zm150.873,132.281H997.156l-14.944,36.152H942.3l75.08-168.433h38.492l75.313,168.433h-40.905Zm-12.269-29.6L1036.375,85.79l-26.7,64.483Z" transform="translate(-231.56 353.21)" fill="#fff"/>
    </g>
    <g transform="matrix(1, 0, 0, 1, 4335.73, -586.97)" filter="url(#Path_2)">
      <path id="Path_2-2" data-name="Path 2" d="M312.19,251.664v9.855H254.64v-79.3h55.965v9.856H265.964v24.348h39.757v9.638H265.964v25.6Zm26.5-25.947h30.526v9.4H338.69Zm79.471,31.442a38.737,38.737,0,0,1-15.016-14.536,42.459,42.459,0,0,1,0-41.574,38.619,38.619,0,0,1,15.06-14.536,44.086,44.086,0,0,1,21.572-5.19,44.87,44.87,0,0,1,16.993,3.111,34.714,34.714,0,0,1,13.083,9.231l-7.37,7.137a29.539,29.539,0,0,0-22.314-9.405,32.258,32.258,0,0,0-15.99,3.968A28.623,28.623,0,0,0,413.014,206.3a32.14,32.14,0,0,0,0,31.152,28.726,28.726,0,0,0,11.164,10.931,32.255,32.255,0,0,0,15.99,3.968,29.611,29.611,0,0,0,22.314-9.521l7.37,7.137a35.369,35.369,0,0,1-13.2,9.289,44.787,44.787,0,0,1-17.051,3.169A43.841,43.841,0,0,1,418.16,257.159Zm89.312,1.076a28.778,28.778,0,0,1-11.15-10.931,33.012,33.012,0,0,1,0-31.6,28.375,28.375,0,0,1,11.15-10.888,33,33,0,0,1,16.092-3.9,32.591,32.591,0,0,1,15.99,3.9,28.46,28.46,0,0,1,11.135,10.931,33.011,33.011,0,0,1,0,31.6,28.866,28.866,0,0,1-11.106,10.931,32.152,32.152,0,0,1-15.99,3.954,32.547,32.547,0,0,1-16.121-4Zm26.456-8.213a18.9,18.9,0,0,0,7.268-7.486,24.711,24.711,0,0,0,0-22.081,18.546,18.546,0,0,0-7.268-7.428,21.95,21.95,0,0,0-20.729,0,18.784,18.784,0,0,0-7.268,7.428,24.247,24.247,0,0,0,0,22.081,19.116,19.116,0,0,0,7.269,7.486A21.514,21.514,0,0,0,533.928,250.021ZM678.7,207.488q6.628,6.57,6.628,19.479v34.553H674.451v-33.3q0-8.722-4.026-13.083t-11.5-4.361a17.224,17.224,0,0,0-13.083,5.146q-4.87,5.175-4.87,14.783v30.933H630.1V228.217q0-8.722-4.027-13.083c-2.689-2.907-6.512-4.361-11.5-4.361a17.254,17.254,0,0,0-13.083,5.146q-4.87,5.175-4.87,14.783v30.933H585.75V201.6h10.423v8.94a21.15,21.15,0,0,1,8.606-7.079,28.971,28.971,0,0,1,12.123-2.428,26.719,26.719,0,0,1,12.458,2.82,19.681,19.681,0,0,1,8.387,8.271,23.011,23.011,0,0,1,9.463-8.155,30.8,30.8,0,0,1,13.65-2.907q11.208-.145,17.836,6.425Zm135.6,0q6.6,6.57,6.614,19.479v34.553H810.032v-33.3q0-8.722-4.012-13.083t-11.5-4.361a17.212,17.212,0,0,0-13.083,5.146q-4.884,5.175-4.869,14.783v30.933H765.7V228.217c0-5.815-1.352-10.176-4.026-13.083s-6.512-4.361-11.5-4.361a17.225,17.225,0,0,0-13.083,5.146q-4.87,5.175-4.87,14.783v30.933H721.346V201.6h10.422v8.94a21.049,21.049,0,0,1,8.606-7.079,28.971,28.971,0,0,1,12.123-2.428,26.719,26.719,0,0,1,12.458,2.82,19.84,19.84,0,0,1,8.387,8.271,22.967,22.967,0,0,1,9.448-8.155,30.846,30.846,0,0,1,13.65-2.907q11.222-.145,17.851,6.425Zm96.9,27.619H862.479a18.9,18.9,0,0,0,6.963,12.748,22.734,22.734,0,0,0,14.783,4.811,22.27,22.27,0,0,0,17.342-7.268l6,7.021a26.312,26.312,0,0,1-10.175,7.268,38.319,38.319,0,0,1-30.41-1.454A27.884,27.884,0,0,1,855.6,247.3a31.268,31.268,0,0,1-4.026-15.859,31.982,31.982,0,0,1,3.939-15.7,28.072,28.072,0,0,1,10.757-10.931,30.685,30.685,0,0,1,15.409-3.9,30.06,30.06,0,0,1,15.35,3.9,27.5,27.5,0,0,1,10.524,10.931,33.346,33.346,0,0,1,3.794,16.092,32.247,32.247,0,0,1-.16,3.285Zm-42.533-20.351a19.188,19.188,0,0,0-6.178,12.458H901a19.378,19.378,0,0,0-6.178-12.4,20.351,20.351,0,0,0-26.166,0Zm92.48-11.208a30.409,30.409,0,0,1,13.49-2.718v10.553a22.53,22.53,0,0,0-2.5-.1q-8.838,0-13.868,5.262t-5.044,15v29.916H942.342V201.426h10.423V211.5a18.518,18.518,0,0,1,8.373-7.864Zm51.939,54.6a29.073,29.073,0,0,1-11.266-10.931,32.6,32.6,0,0,1,0-31.6,28.679,28.679,0,0,1,11.266-10.888,33.81,33.81,0,0,1,16.382-3.9A31.352,31.352,0,0,1,1044,204.115a23.433,23.433,0,0,1,9.914,9.507l-8.271,5.32a18.576,18.576,0,0,0-7.021-6.454,20.221,20.221,0,0,0-9.289-2.151,21.556,21.556,0,0,0-10.6,2.6,18.546,18.546,0,0,0-7.355,7.428,24.362,24.362,0,0,0,0,22.2,18.546,18.546,0,0,0,7.355,7.428,21.557,21.557,0,0,0,10.6,2.6,20.045,20.045,0,0,0,9.289-2.151,18.575,18.575,0,0,0,7.021-6.454l8.271,5.2a23.854,23.854,0,0,1-9.914,9.579,31.02,31.02,0,0,1-14.536,3.329,33.435,33.435,0,0,1-16.382-3.867Zm123.879-23.113h-48.712a18.9,18.9,0,0,0,6.963,12.748,22.735,22.735,0,0,0,14.784,4.811,22.241,22.241,0,0,0,17.327-7.268l6,7.021a26.249,26.249,0,0,1-10.175,7.268,38.317,38.317,0,0,1-30.41-1.454,28.011,28.011,0,0,1-11.4-10.931,31.4,31.4,0,0,1-4.012-15.859,31.8,31.8,0,0,1,3.954-15.627,28.071,28.071,0,0,1,10.757-10.931,30.686,30.686,0,0,1,15.467-3.9,30.132,30.132,0,0,1,15.35,3.9,27.62,27.62,0,0,1,10.525,10.931,33.348,33.348,0,0,1,3.794,16.092,32.122,32.122,0,0,1-.218,3.285Zm-42.534-20.351a19.117,19.117,0,0,0-6.178,12.69h38.507a19.29,19.29,0,0,0-6.163-12.4,20.351,20.351,0,0,0-26.166,0Z" transform="translate(-237.56 413.9)" fill="#fff"/>
    </g>
  </g>
</svg>
