<svg xmlns="http://www.w3.org/2000/svg" xmlns:xlink="http://www.w3.org/1999/xlink" width="861.763" height="253.507" viewBox="0 0 861.763 253.507">
  <defs>
    <linearGradient id="linear-gradient" x1="0.606" y1="0.125" x2="1.03" y2="-1.242" gradientUnits="objectBoundingBox">
      <stop offset="0" stop-color="#eb5b17"/>
      <stop offset="1" stop-color="#f97e30"/>
    </linearGradient>
    <linearGradient id="linear-gradient-2" x1="0.376" y1="-0.008" x2="0.604" y2="1.029" xlink:href="#linear-gradient"/>
    <linearGradient id="linear-gradient-3" x1="0.397" y1="0.171" x2="0.6" y2="1.133" xlink:href="#linear-gradient"/>
  </defs>
  <g id="Group_44263" data-name="Group 44263" transform="translate(-218.793 -596.759)">
    <path id="Path_86689" data-name="Path 86689" d="M554.849,735.832h-53.8l-10.263,24.829H463.313l51.643-115.869h26.485l51.81,115.869H565.112Zm-8.443-20.36-18.373-44.361-18.374,44.361Zm58.926-70.68h26.816v94.019h58.1v21.85H605.332ZM782.2,649.923a39.736,39.736,0,0,1,17.463,14.567q6.121,9.435,6.125,22.346a40.242,40.242,0,0,1-6.125,22.263A39.009,39.009,0,0,1,782.2,723.666q-11.338,5.051-26.732,5.048h-23.34v31.947H705.309V644.792h50.155Q770.858,644.792,782.2,649.923Zm-9.848,51.727q6.288-5.214,6.29-14.814,0-9.765-6.29-14.98t-18.374-5.214h-21.85v40.222h21.85Q766.055,706.864,772.348,701.65Zm158.739-56.858V760.661H904.272V713.154H851.634v47.507H824.819V644.792h26.815v45.686h52.638V644.792Zm103.786,91.04h-53.8l-10.262,24.829H943.337l51.644-115.869h26.484l51.811,115.869h-28.14Zm-8.442-20.36-18.373-44.361-18.374,44.361Z" fill="#020405"/>
    <path id="Path_86690" data-name="Path 86690" d="M513.02,826.966v6.78H473.434V779.2h38.495v6.78h-30.7v16.754h27.352v6.624H481.226v17.611Zm18.235-17.845h20.963v6.468H531.255Zm54.665,21.625a26.654,26.654,0,0,1-10.326-9.975,29.206,29.206,0,0,1,0-28.6,26.593,26.593,0,0,1,10.364-9.975,30.345,30.345,0,0,1,14.807-3.623,30.916,30.916,0,0,1,11.688,2.143,23.922,23.922,0,0,1,9.04,6.351l-5.065,4.909a20.329,20.329,0,0,0-15.352-6.468,22.252,22.252,0,0,0-10.987,2.727,19.789,19.789,0,0,0-7.676,7.52,22.137,22.137,0,0,0,0,21.43,19.768,19.768,0,0,0,7.676,7.52,22.231,22.231,0,0,0,10.987,2.728,20.367,20.367,0,0,0,15.352-6.546l5.065,4.909a24.228,24.228,0,0,1-9.079,6.39,30.7,30.7,0,0,1-11.727,2.182A30.119,30.119,0,0,1,585.92,830.746Zm61.445.74a19.773,19.773,0,0,1-7.675-7.52,22.738,22.738,0,0,1,0-21.742,19.507,19.507,0,0,1,7.675-7.481,24.042,24.042,0,0,1,22.093,0,19.594,19.594,0,0,1,7.637,7.481,22.745,22.745,0,0,1,0,21.742,19.863,19.863,0,0,1-7.637,7.52,23.737,23.737,0,0,1-22.093,0Zm18.2-5.65a12.927,12.927,0,0,0,4.948-5.143,17,17,0,0,0,0-15.2,12.685,12.685,0,0,0-4.948-5.1,15.082,15.082,0,0,0-14.261,0,12.914,12.914,0,0,0-4.987,5.1,16.68,16.68,0,0,0,0,15.2,13.162,13.162,0,0,0,4.987,5.143,14.792,14.792,0,0,0,14.261,0Zm99.59-29.261q4.559,4.52,4.558,13.4v23.768h-7.481v-22.91q0-6-2.767-9.04t-7.909-3.039a11.843,11.843,0,0,0-9.039,3.545q-3.352,3.547-3.352,10.17v21.274h-7.48v-22.91q0-6-2.767-9.04t-7.909-3.039a11.847,11.847,0,0,0-9.04,3.545q-3.351,3.547-3.351,10.17v21.274h-7.48v-41.3H708.3V798.6a14.482,14.482,0,0,1,5.922-4.87,19.831,19.831,0,0,1,8.339-1.676A18.3,18.3,0,0,1,731.136,794a13.545,13.545,0,0,1,5.767,5.689,15.835,15.835,0,0,1,6.506-5.611,21.217,21.217,0,0,1,9.391-2.026Q760.591,792.055,765.152,796.575Zm93.277,0q4.559,4.52,4.558,13.4v23.768h-7.481v-22.91q0-6-2.767-9.04t-7.909-3.039a11.844,11.844,0,0,0-9.039,3.545q-3.351,3.547-3.351,10.17v21.274h-7.481v-22.91q0-6-2.766-9.04t-7.91-3.039a11.848,11.848,0,0,0-9.04,3.545q-3.351,3.547-3.35,10.17v21.274h-7.481v-41.3h7.169V798.6a14.488,14.488,0,0,1,5.922-4.87,19.838,19.838,0,0,1,8.339-1.676A18.294,18.294,0,0,1,824.413,794a13.545,13.545,0,0,1,5.767,5.689,15.831,15.831,0,0,1,6.507-5.611,21.21,21.21,0,0,1,9.39-2.026Q853.869,792.055,858.429,796.575Zm66.664,19.014H891.584a12.976,12.976,0,0,0,4.792,8.767,15.641,15.641,0,0,0,10.17,3.312,15.322,15.322,0,0,0,11.923-4.988l4.13,4.832a18.094,18.094,0,0,1-6.975,4.987,26.3,26.3,0,0,1-20.923-.974,19.165,19.165,0,0,1-7.832-7.52,21.561,21.561,0,0,1-2.766-10.91,21.9,21.9,0,0,1,2.688-10.832,19.271,19.271,0,0,1,7.4-7.52,21.085,21.085,0,0,1,10.636-2.688,20.672,20.672,0,0,1,10.56,2.688,18.9,18.9,0,0,1,7.247,7.52,22.917,22.917,0,0,1,2.61,11.066A21.647,21.647,0,0,1,925.093,815.589ZM895.831,801.64a13.192,13.192,0,0,0-4.247,8.572h26.495a13.291,13.291,0,0,0-4.247-8.533,13.948,13.948,0,0,0-18-.039Zm63.627-7.715a20.924,20.924,0,0,1,9.274-1.87V799.3a14.853,14.853,0,0,0-1.715-.078q-6.078,0-9.546,3.624T954,813.173v20.573h-7.48v-41.3h7.169v6.936A12.757,12.757,0,0,1,959.458,793.925Zm35.73,37.561a19.974,19.974,0,0,1-7.754-7.52,22.461,22.461,0,0,1,0-21.742,19.706,19.706,0,0,1,7.754-7.481,23.206,23.206,0,0,1,11.26-2.688,21.618,21.618,0,0,1,10.013,2.26,16.107,16.107,0,0,1,6.819,6.546l-5.689,3.662a12.709,12.709,0,0,0-4.831-4.441,13.784,13.784,0,0,0-6.39-1.481,14.779,14.779,0,0,0-7.286,1.792,12.772,12.772,0,0,0-5.065,5.1,16.842,16.842,0,0,0,0,15.274,12.747,12.747,0,0,0,5.065,5.1,14.759,14.759,0,0,0,7.286,1.793,13.784,13.784,0,0,0,6.39-1.481,12.7,12.7,0,0,0,4.831-4.442l5.689,3.585a16.345,16.345,0,0,1-6.819,6.585,21.314,21.314,0,0,1-10.013,2.3A22.929,22.929,0,0,1,995.188,831.486Zm85.213-15.9h-33.509a12.972,12.972,0,0,0,4.792,8.767,15.639,15.639,0,0,0,10.17,3.312,15.324,15.324,0,0,0,11.923-4.988l4.129,4.832a18.1,18.1,0,0,1-6.974,4.987,26.3,26.3,0,0,1-20.923-.974,19.165,19.165,0,0,1-7.832-7.52,21.552,21.552,0,0,1-2.767-10.91,21.9,21.9,0,0,1,2.689-10.832,19.276,19.276,0,0,1,7.4-7.52,21.092,21.092,0,0,1,10.637-2.688,20.665,20.665,0,0,1,10.559,2.688,18.912,18.912,0,0,1,7.248,7.52,22.917,22.917,0,0,1,2.61,11.066A21.633,21.633,0,0,1,1080.4,815.589Zm-29.262-13.949a13.192,13.192,0,0,0-4.247,8.572h26.495a13.291,13.291,0,0,0-4.247-8.533,13.948,13.948,0,0,0-18-.039Z" fill="url(#linear-gradient)"/>
    <path id="Path_86691" data-name="Path 86691" d="M315.312,685.495V635.943a37.434,37.434,0,0,1,37.434-37.434h0a37.434,37.434,0,0,1,37.434,37.434v49.552" fill="none" stroke="#000" stroke-miterlimit="10" stroke-width="3.5"/>
    <path id="Path_86692" data-name="Path 86692" d="M424.79,664.691,272.7,659.644c-6.214-.23-11.619,3.807-12.395,9.257l-2.469,119.533c2.69-5.577,5.4-10.886,5.938-12.492,1.142-3.424,35.763-47.937,35.763-47.937l55.953-4.237,27.83-.384,34.974,29.859,1.554,17.919.264,3.046,4.265,49.2L402.9,835.267l10.9.455c6.96.258,12.729-4.8,12.48-10.938L436.063,674.7C435.843,669.264,430.947,664.919,424.79,664.691Z" fill="#020405"/>
    <g id="Group_44260" data-name="Group 44260">
      <path id="Path_86693" data-name="Path 86693" d="M247.678,793.514a46.515,46.515,0,0,0,15.739,17c9.848,6.388,22.62,9.765,36.934,9.765,16.747,0,35.179-4.6,53.3-13.3A168.415,168.415,0,0,0,407.909,765.3l10.382-12.057-7.966-91.87a11.345,11.345,0,0,0-11.3-10.366H268.8a11.345,11.345,0,0,0-11.314,10.505Z" fill="url(#linear-gradient-2)"/>
      <path id="Path_86694" data-name="Path 86694" d="M424.374,823.406l-4.529-52.244-.269,1.784-.2,1.363-.715,1.178c-14.556,23.989-36.736,45.383-62.088,60.244h56.5A11.345,11.345,0,0,0,424.374,823.406Z" fill="url(#linear-gradient-3)"/>
      <path id="Path_86695" data-name="Path 86695" d="M392.039,798.929c1.191-1.257,2.367-2.522,3.51-3.8.277-.311.539-.63.813-.942,1.026-1.17,2.048-2.341,3.034-3.529.362-.437.7-.883,1.06-1.322.875-1.076,1.752-2.15,2.592-3.24.478-.619.927-1.249,1.394-1.873.691-.923,1.393-1.842,2.059-2.774.617-.861,1.2-1.734,1.791-2.6.486-.709.99-1.412,1.46-2.125q1.573-2.382,3.036-4.792l.323-2.147a175.5,175.5,0,0,1-56.486,43.388c-19.721,9.466-39.036,13.974-56.274,13.974-15.7,0-29.672-3.737-40.67-10.87-1.356-.88-2.65-1.83-3.914-2.813-.616-.483-1.2-1-1.8-1.5-.568-.482-1.131-.97-1.677-1.474q-1.137-1.058-2.212-2.175c-.286-.3-.562-.6-.84-.9-.821-.9-1.629-1.8-2.39-2.758h0a55.63,55.63,0,0,1-11.032-24.085c-3.6-17.953.316-38.03,9.863-57.469l.464-.956c.751-1.5,1.526-2.993,2.343-4.481-22.253,27.211-33.791,59.04-28.369,86.053,6.021,29.988,31.444,46.558,64.5,46.558a120.732,120.732,0,0,0,37.225-6.294,155.316,155.316,0,0,0,19.079-7.658,175.01,175.01,0,0,0,42-28.434l.051-.048q2.208-2.016,4.333-4.089c.092-.089.179-.182.271-.273q2.006-1.968,3.939-3.982C391.7,799.3,391.864,799.114,392.039,798.929Z" fill="#020405"/>
    </g>
    <g id="Group_44261" data-name="Group 44261">
      <path id="Path_86696" data-name="Path 86696" d="M361.385,686.648a10.966,10.966,0,1,1,10.966,10.966A10.966,10.966,0,0,1,361.385,686.648Z" fill="#020405"/>
      <path id="Path_86697" data-name="Path 86697" d="M286.515,686.648a10.966,10.966,0,1,1,10.966,10.966A10.966,10.966,0,0,1,286.515,686.648Z" fill="#020405"/>
    </g>
    <path id="Path_86698" data-name="Path 86698" d="M297.481,685.495V635.943a37.435,37.435,0,0,1,37.435-37.434h0a37.435,37.435,0,0,1,37.435,37.434v49.552" fill="none" stroke="#000" stroke-miterlimit="10" stroke-width="3.5"/>
    <g id="Group_44262" data-name="Group 44262">
      <path id="Path_86699" data-name="Path 86699" d="M347.426,774.119c-4.591,0-9.183-.017-13.774.01a3.4,3.4,0,0,1-3.272-1.794,3.446,3.446,0,0,1,.2-3.623c2.287-3.873,4.556-7.758,6.846-11.63a4.124,4.124,0,1,1,6.982,4.366c-.858,1.327-1.776,2.614-2.652,3.93-.632.951-.394,1.452.736,1.456q7.514.03,15.026.011c.714,0,.838-.3.435-.982q-3.691-6.268-7.39-12.534-8.742-14.83-17.484-29.662c-.666-1.131-.975-1.134-1.645-.022q-10.159,16.863-20.317,33.727-4.467,7.416-8.941,14.829a3.783,3.783,0,0,1-5.361,1.366,3.884,3.884,0,0,1-1.145-5.425q5.553-9.144,11.061-18.318,11.205-18.576,22.411-37.153a3.206,3.206,0,0,1,5.726.06c2.25,3.692,4.466,7.4,6.711,11.1,8.329,13.711,16.581,27.467,24.562,41.385a5.737,5.737,0,0,1-4.8,8.888q-6.952-.008-13.9,0Z" fill="#fff"/>
      <path id="Path_86700" data-name="Path 86700" d="M315.542,774.127a3.882,3.882,0,0,1-3.082-6.105q6.621-10.455,13.232-20.916a38.3,38.3,0,0,1,2.412-3.688,3.862,3.862,0,0,1,3.941-1.412,3.746,3.746,0,0,1,3.091,2.8,3.553,3.553,0,0,1-.422,2.972q-7.761,12.266-15.537,24.52A3.968,3.968,0,0,1,315.542,774.127Z" fill="#fff"/>
    </g>
  </g>
</svg>
